<svg id="Capa_1" enable-background="new 0 0 512 512" height="512" viewBox="0 0 512 512" width="512" xmlns="http://www.w3.org/2000/svg"><g><path d="m464.53 428.795-35.375-56.599v-168.824c.523-66.886-39.709-130.276-103.122-158.433l68.78-15.285c8.089-1.797 13.188-9.812 11.391-17.9s-9.808-13.194-17.9-11.391l-132.304 29.401-132.304-29.401c-8.091-1.806-16.103 3.302-17.9 11.391-1.798 8.089 3.302 16.103 11.391 17.9l68.78 15.285c-62.782 27.876-103.436 90.534-103.122 158.418v168.839l-35.375 56.6c-3.041 4.865-3.041 11.039 0 15.904l37.655 60.249c5.862 9.379 19.568 9.405 25.446 0l37.655-60.249c3.041-4.865 3.041-11.039 0-15.904l-35.375-56.6v-71.598c13.837 20.29 31.869 37.498 52.839 50.369v40.596c0 8.286 6.717 15.003 15.003 15.003s15.003-6.717 15.003-15.003v-25.963c14.308 5.332 29.504 8.819 45.3 10.182v48.537c-17.528 6.199-30.124 22.929-30.124 42.553.001 24.883 20.245 45.128 45.128 45.128s45.127-20.245 45.127-45.128c0-19.624-12.596-36.355-30.124-42.553v-48.537c15.796-1.363 30.992-4.85 45.3-10.182v25.963c0 8.286 6.717 15.003 15.003 15.003s15.003-6.717 15.003-15.003v-40.596c20.97-12.872 39.002-30.08 52.839-50.369v71.599l-35.374 56.599c-3.041 4.865-3.041 11.039 0 15.904l37.655 60.249c5.862 9.379 19.566 9.405 25.445 0l37.656-60.249c3.041-4.866 3.041-11.039 0-15.905zm-90.38-144.784c-3.804-10.795-9.078-24.044-16.147-38.515 15.265-5.248 28.372-10.889 38.699-15.827-3.715 19.851-11.537 38.271-22.552 54.342zm-91.766 59.975c4.936-10.326 10.576-23.433 15.824-38.699 14.472 7.069 27.721 12.344 38.518 16.148-16.072 11.015-34.491 18.837-54.342 22.551zm-167.086-114.317c10.327 4.938 23.433 10.578 38.699 15.827-7.069 14.471-12.343 27.72-16.147 38.516-11.015-16.072-18.837-34.492-22.552-54.343zm22.552-107.112c3.804 10.797 9.079 24.047 16.148 38.519-15.266 5.248-28.373 10.887-38.699 15.824 3.713-19.851 11.535-38.271 22.551-54.343zm258.852 54.343c-10.327-4.937-23.433-10.576-38.699-15.824 7.069-14.472 12.344-27.722 16.148-38.519 11.014 16.072 18.837 34.492 22.551 54.343zm-125.264-61.078c-5.107 3.072-10.267 6.36-15.438 9.878-5.171-3.517-10.331-6.806-15.437-9.877 5.014-15.302 10.586-28.505 15.438-38.786 4.852 10.282 10.424 23.484 15.437 38.785zm-55.766 87.463c12.014-15.13 24.955-28.121 40.328-40.328 15.246 12.107 28.219 25.077 40.328 40.328-12.104 15.246-25.077 28.218-40.328 40.328-15.267-12.121-28.243-25.107-40.328-40.328zm98.618-25.438c-10.078-11.911-20.652-22.529-32.851-32.852 23.854-14.991 46.991-24.88 63.781-30.93-6.051 16.792-15.94 39.929-30.93 63.782zm-83.729-32.852c-12.249 10.365-22.814 20.99-32.851 32.852-14.991-23.855-24.881-46.992-30.931-63.781 16.793 6.05 39.929 15.94 63.782 30.929zm-52.147 58.29c-3.516 5.171-6.804 10.329-9.875 15.436-15.304-5.012-28.507-10.584-38.79-15.437 10.284-4.851 23.488-10.422 38.79-15.433 3.071 5.107 6.359 10.265 9.875 15.434zm19.296 25.439c10.019 11.84 20.579 22.467 32.851 32.851-23.854 14.991-46.991 24.88-63.781 30.93 6.051-16.792 15.94-39.928 30.93-63.781zm58.29 52.147c5.169 3.515 10.327 6.803 15.433 9.873-5.011 15.304-10.581 28.505-15.432 38.788-4.851-10.283-10.423-23.486-15.433-38.788 5.105-3.069 10.262-6.357 15.432-9.873zm25.438-19.296c11.895-10.065 22.508-20.628 32.851-32.851 14.991 23.854 24.881 46.991 30.93 63.78-16.791-6.049-39.927-15.938-63.781-30.929zm52.148-58.29c3.516-5.17 6.804-10.328 9.875-15.434 15.303 5.011 28.507 10.582 38.79 15.433-10.284 4.854-23.487 10.425-38.79 15.437-3.071-5.106-6.358-10.266-9.875-15.436zm-35.373-102.003c-5.251-15.267-10.893-28.374-15.83-38.7 19.853 3.714 38.274 11.537 54.346 22.554-10.796 3.803-24.045 9.077-38.516 16.146zm-84.426 0c-14.471-7.068-27.72-12.343-38.516-16.146 16.072-11.017 34.494-18.84 54.347-22.554-4.938 10.326-10.58 23.433-15.831 38.7zm-38.513 220.152c10.797-3.804 24.046-9.078 38.519-16.148 5.248 15.267 10.888 28.373 15.824 38.7-19.851-3.714-38.271-11.536-54.343-22.552zm-77.426 147.254-19.963-31.941 19.963-31.941 19.963 31.941zm158.152 13.305c-8.338 0-15.121-6.784-15.121-15.121 0-8.325 6.762-15.097 15.082-15.119 8.35-.022 15.159 6.764 15.159 15.119.001 8.338-6.782 15.121-15.12 15.121zm158.152-13.305-19.962-31.941 19.962-31.941 19.963 31.941z"/></g></svg>